<svg width="501" height="256" viewBox="0 0 501 256" fill="none" xmlns="http://www.w3.org/2000/svg">
<path fill-rule="evenodd" clip-rule="evenodd" d="M45.064 85.0762C68.8337 71.9366 93.2157 70.2374 115.698 76.3676C116.664 68.6868 117.211 61.9885 121.473 52.7497C115.825 56.8549 112.205 61.5067 108.051 66.5339L106.651 45.1108L88.6177 65.1489L76.2739 45L68.6819 67.5333L46.6131 51.955L50.3271 73.6268C45.2609 69.4214 39.6092 65.2157 33.9391 62.8753C38.2952 68.6152 42.5343 76.5454 45.064 85.0762Z" fill="#38003D" stroke="#38003D" stroke-width="0.216566" stroke-linejoin="round"/>
<path fill-rule="evenodd" clip-rule="evenodd" d="M137.035 94.1565C130.747 88.9321 124.429 84.3717 110.549 80.9566C111.805 83.7028 112.844 87.1861 112.831 90.8167C109.249 86.9997 104.903 82.262 99.5918 79.4485C82.0546 77.1515 64.0181 81.552 49.8892 88.6701C55.8796 89.3658 60.5997 94.0281 62.1915 99.1742C45.2724 87.3767 35.5585 104.388 45.3558 121.331C34.8285 116.311 34.3377 104.078 37.5458 96.0366C29.6422 102.037 17.5633 113.608 10.036 129.281L19.6973 130.644C8.02131 144.379 2.14104 164.164 1 175.794L16.7198 170.699C11.7428 188.724 15.7278 216.78 22.0761 227.022C31.8871 219.305 39.7566 209.647 47.8996 197.39C53.0612 213.693 52.1329 230.655 48.1175 247.951C71.0453 260.928 99.5814 255.669 118.28 241.574C119.076 244.913 119.619 246.479 121.179 253.735C143.872 238.018 151.57 218.789 153.774 200.145L161.155 208.301C171.036 176.389 165.15 150.457 147.596 125.337L146.871 131.196C144.831 128.639 141.491 125.526 139.935 123.572C139.691 123.265 139.752 123.092 139.592 122.843C140.423 122.336 141.96 121.616 142.364 120.521C142.197 118.998 140.431 115.07 139.127 114.339C135.875 114.643 133.266 117.487 133.244 118.529C131.554 116.933 129.958 115.167 125.031 113.349C127.241 115.586 129.365 119.021 130.926 122.07C134.168 124.448 139.593 129.006 143.639 133.161L142.859 133.948C138.422 130.47 126.539 130.766 120.001 134.066C116.818 130.252 113.132 126.016 107.969 121.344C106.713 119.196 106.597 115.357 110.598 112.038C106.179 112.432 104.34 114.343 102.258 116.112C99.1648 113.779 95.1189 111.355 88.5591 109.49C83.419 110.534 77.2171 113.828 74.8276 116.714C80.8252 119.922 82.6559 120.891 86.2969 121.148C91.6411 121.524 96.2906 120.311 99.7044 122.495C103.942 126.261 111.879 133.31 113.005 136.512C106.145 132.581 95.8712 134.659 84.45 134.064C73.6504 132.772 67.6989 124.781 67.5862 118.345L59.9107 117.135C64.2281 111.207 69.6946 108.57 73.7302 107.156L69.5161 103.668C76.2655 97.8644 86.7632 93.2109 97.4475 92.2857C104.853 95.9482 111.199 99.9592 115.551 103.548C117.518 100.262 117.804 96.6914 118.047 94.3522C126.489 98.2388 135.917 104.9 142.813 111.916C140.048 106.871 137.951 101.051 137.035 94.1565V94.1565ZM104.049 173.177C100.809 166.964 97.6381 159.93 93.9182 154.017C101.109 148.864 107.914 143.524 119.573 140.542C122.035 142.586 125.659 145.038 130.829 146.919L130.822 159.199C123.49 164.222 116.163 172.407 104.049 173.177ZM128.463 170.919L137.342 170.891C138.845 172.304 141.979 177.098 142.203 180.834C141.505 186.133 137.396 195.875 130.173 199.594C130.402 195.083 129.884 189.243 128.977 185.992C124.855 190.633 118.146 192.722 114.688 193.49C113.25 189.657 110.892 185.425 108.593 181.957C114.778 180.674 122.604 176.133 128.463 170.919ZM145.791 141.033C151.637 153.423 150.379 165.303 146.276 171.392C144.278 166.818 140.441 162.241 137.185 159.36L137.318 147.329C141.017 145.338 143.54 143.249 145.791 141.033Z" fill="#38003D" stroke="#38003D" stroke-width="0.216566" stroke-linejoin="round"/>
<path d="M207.663 127.734V150.906H194.365V80.5222H212.3C224.144 80.6715 228.005 82.0696 233.122 85.4915C238.271 88.8814 241.893 96.33 241.89 103.558C241.883 119.678 231.947 127.858 213.323 127.734H207.663ZM207.663 115.173H214.384C221.815 115.229 228.01 112.432 228.062 103.97C227.964 98.7754 224.977 93.8392 215.77 93.2996H207.663V115.173Z" fill="#38003D" stroke="#38003D" stroke-width="0.216566"/>
<path d="M274.191 116.65C266.105 114.414 259.417 118.567 258.848 126.337V150.906H246.514V104.805H257.332L258.769 111.811C262.107 105.656 266.425 103.271 274.191 104.782V116.65Z" fill="#38003D" stroke="#38003D" stroke-width="0.216566"/>
<path d="M322.343 131.719H288.185C288.192 136.582 293.331 141.449 299.872 141.43C307.222 141.181 310.065 138.401 312.637 135.828L319.998 143.527C317.096 146.287 311.569 151.487 300.925 152.234C285.035 152.061 275.445 141.568 275.304 128.32C275.698 113.635 286.321 103.666 299.925 103.481C308.623 103.537 317.015 108.762 320.528 116.983C322.545 121.682 322.968 127.363 322.343 131.719ZM288.16 123.154H310.528C309.528 118.687 305.371 114.111 299.358 114.212C293.255 114.315 288.832 118.604 288.16 123.154Z" fill="#38003D" stroke="#38003D" stroke-width="0.216566" stroke-linejoin="round"/>
<path d="M383.343 150.865V123.558C383.009 117.551 378.79 114.956 375.488 115.193C371.295 115.494 368.02 118.686 367.759 123.815V150.865H355.648V121.669C354.925 117.365 351.043 115.007 347.818 115.281C343.986 115.607 340.664 117.816 340.324 122.228V150.865H327.954V104.658H339.144L340.374 110.535C343.484 105.736 346.723 103.442 351.93 103.399C359.239 103.339 362.441 107.01 365.432 110.88C369.252 105.493 372.624 103.685 379.854 103.399C390.426 103.923 395.896 112.392 395.626 121.814V150.865H383.343Z" fill="#38003D" stroke="#38003D" stroke-width="0.216566"/>
<path d="M402.293 104.788H415.025V150.865H402.293V104.788Z" fill="#38003D" stroke="#38003D" stroke-width="0.216566"/>
<path d="M194.151 158.546H208.113V214.558H237.645V227.281H194.151V158.546Z" fill="#38003D" stroke="#38003D" stroke-width="0.216566"/>
<path d="M331.448 227.281L330.058 221.562C325.678 226.839 320.51 228.805 314.13 228.53C308.342 228.281 302.429 225.291 298.097 219.82C294.444 215.34 292.618 209.895 292.618 203.486C292.618 197.145 295.618 190.875 300.846 185.94C304.938 182.355 310.631 180.254 316.164 180.294C321.463 180.333 325.982 181.844 329.931 186.882L331.188 180.939H342.602V227.281H331.448ZM318.247 191.857C311.149 192.326 306.382 196.648 305.956 204.202C305.945 207.788 307.125 211.349 310.016 213.787C312.612 215.788 315.675 216.816 318.692 216.667C325.457 216.198 329.967 210.967 330.042 204.709C330.133 197.588 325.754 192.292 318.247 191.857Z" fill="#38003D" stroke="#38003D" stroke-width="0.216566"/>
<path d="M403.279 181.025H416.372V203.361C416.372 206.428 416.073 210.258 418.097 212.878C420.156 215.385 422.815 216.486 425.122 216.559C428.768 216.675 430.86 215.583 432.4 214.312C435.541 211.871 435.893 207.222 435.908 203.671V181.025H448.741V207.91C448.741 213.862 446.327 218.778 442.044 223.052C437.875 226.74 432.191 228.819 425.092 228.498C418.003 228.177 413.525 226.145 409.539 222.448C406.208 219.358 403.279 214.018 403.279 206.824V181.025Z" fill="#38003D" stroke="#38003D" stroke-width="0.216566"/>
<path d="M408.902 82.5887C411.091 82.5887 412.952 83.3732 414.484 84.942C416.053 86.4744 416.838 88.3351 416.838 90.5242C416.838 92.7133 416.053 94.5923 414.484 96.1612C412.952 97.6935 411.091 98.4597 408.902 98.4597C406.713 98.4597 404.834 97.6935 403.265 96.1612C401.733 94.5923 400.967 92.7133 400.967 90.5242C400.967 88.3351 401.733 86.4744 403.265 84.942C404.834 83.3732 406.713 82.5887 408.902 82.5887Z" fill="#38003D" stroke="#38003D" stroke-width="0.216566"/>
<path d="M500.718 116.65C492.633 114.414 485.944 118.567 485.376 126.337V150.906H473.041V104.805H483.86L485.296 111.811C488.635 105.656 492.953 103.271 500.718 104.782V116.65Z" fill="#38003D" stroke="#38003D" stroke-width="0.216566"/>
<path d="M467.226 131.719H433.067C433.075 136.582 438.214 141.449 444.754 141.43C452.104 141.181 454.948 138.401 457.52 135.828L464.88 143.527C461.979 146.287 456.452 151.487 445.808 152.234C429.917 152.061 420.327 141.568 420.186 128.32C420.58 113.635 431.204 103.666 444.807 103.481C453.506 103.537 461.897 108.762 465.411 116.983C467.428 121.682 467.85 127.363 467.226 131.719ZM433.042 123.154H455.411C454.41 118.687 450.254 114.111 444.241 114.212C438.138 114.315 433.714 118.604 433.042 123.154Z" fill="#38003D" stroke="#38003D" stroke-width="0.216566" stroke-linejoin="round"/>
<path d="M356.457 231.98C361.027 236.028 364.581 237.54 367.411 238.005C376.404 239.481 386.141 236.086 384.063 223.212C381.613 225.736 379.286 227.115 376.774 227.837C365.623 230.04 357.895 226.061 352.801 219.82C349.149 215.34 347.322 209.895 347.322 203.486C347.322 197.145 350.323 190.875 355.551 185.94C359.643 182.355 365.336 180.254 370.869 180.294C376.168 180.333 380.687 181.844 384.636 186.882L385.893 180.939H397.306V223.705C397.792 244.126 382.747 250.41 370.644 250.303C363.167 250.238 355.458 247.179 349.362 241.929L356.457 231.98ZM372.952 191.857C365.854 192.326 361.087 196.648 360.661 204.202C360.649 207.788 361.83 211.349 364.721 213.787C367.317 215.788 370.379 216.816 373.397 216.667C380.162 216.198 384.671 210.967 384.747 204.709C384.838 197.588 380.459 192.292 372.952 191.857Z" fill="#38003D" stroke="#38003D" stroke-width="0.216566"/>
<path d="M500.517 208.068H466.358C466.365 212.931 471.505 217.798 478.045 217.779C485.395 217.53 488.239 214.75 490.811 212.177L498.171 219.876C495.27 222.636 489.742 227.836 479.098 228.583C463.208 228.41 453.618 217.917 453.477 204.669C453.871 189.984 464.495 180.015 478.098 179.83C486.796 179.886 495.188 185.111 498.702 193.332C500.719 198.031 501.141 203.712 500.517 208.068ZM466.333 199.503H488.702C487.701 195.036 483.544 190.46 477.532 190.561C471.429 190.664 467.005 194.953 466.333 199.503Z" fill="#38003D" stroke="#38003D" stroke-width="0.216566" stroke-linejoin="round"/>
<path d="M287.632 208.068H253.474C253.481 212.931 258.621 217.798 265.161 217.779C272.511 217.53 275.354 214.75 277.927 212.177L285.287 219.876C282.385 222.636 276.858 227.836 266.214 228.583C250.324 228.41 240.734 217.917 240.593 204.669C240.987 189.984 251.611 180.015 265.214 179.83C273.912 179.886 282.304 185.111 285.818 193.332C287.835 198.031 288.257 203.712 287.632 208.068ZM253.449 199.503H275.817C274.817 195.036 270.66 190.46 264.648 190.561C258.545 190.664 254.121 194.953 253.449 199.503Z" fill="#38003D" stroke="#38003D" stroke-width="0.216566" stroke-linejoin="round"/>
<path d="M222.258 67H220.359V41.4414C220.336 37.6211 219.492 34.7852 217.828 32.9336C216.188 31.0586 213.562 30.1211 209.953 30.1211C205.781 30.1211 202.371 31.9609 199.723 35.6406C198.152 37.8438 197.109 40.2812 196.594 42.9531V67H194.66V28.9609H196.594V37.9609C197.883 34.8672 199.723 32.4766 202.113 30.7891C204.504 29.1016 207.152 28.2578 210.059 28.2578C213.246 28.2578 215.848 28.9609 217.863 30.3672C219.902 31.7734 221.238 34.0703 221.871 37.2578C222.996 34.5156 224.824 32.3359 227.355 30.7188C229.887 29.0781 232.723 28.2578 235.863 28.2578C239.965 28.2578 243.012 29.418 245.004 31.7383C247.02 34.0586 248.039 37.5391 248.062 42.1797V67H246.164V42.3203C246.164 38.1484 245.32 35.0664 243.633 33.0742C241.969 31.0586 239.344 30.0742 235.758 30.1211C231.141 30.1914 227.484 32.0312 224.789 35.6406C223.242 37.7266 222.398 39.7422 222.258 41.6875V67ZM271.23 64.0469L271.477 63.3438L284.625 28.9609H286.734L269.719 73.6094L268.875 75.7188C267.047 80.1484 264.023 82.3633 259.805 82.3633C258.445 82.3633 257.508 82.2344 256.992 81.9766L256.957 80.1836C257.707 80.3945 258.562 80.5 259.523 80.5C261.516 80.5 263.168 79.9141 264.48 78.7422C265.793 77.5938 266.93 75.707 267.891 73.082L270.211 66.7891L255.059 28.9609H257.133L271.23 64.0469Z" fill="#38003D"/>
</svg>
